<svg id="ranken_svg" data-name="ranken_svg" xmlns="http://www.w3.org/2000/svg" viewBox="0 0 186.63 37.42"><defs><style>.cls-1{fill:#fff;}</style></defs><title>Untitled-21</title><path class="cls-1" d="M44.64,15l3.44-6.89L51.53,15H44.64ZM51.28,2.32H45.16L33.54,24.88h6.73l2.21-5,11.31,0.05L56,24.83h6.84Z" transform="translate(-4.45 -2.26)"></path><polygon class="cls-1" points="64.51 22.62 64.51 0 70.62 0 83.17 13.93 83.17 0.15 89.13 0.15 89.13 22.72 83.47 22.72 70.42 8.33 70.42 22.67 64.51 22.62"></polygon><polygon class="cls-1" points="162.01 22.62 162.01 0 168.13 0 180.67 13.93 180.67 0.15 186.63 0.15 186.63 22.72 180.98 22.72 167.92 8.33 167.92 22.67 162.01 22.62"></polygon><polygon class="cls-1" points="99.61 22.72 99.61 0.05 105.78 0.05 105.78 8.58 110.1 8.58 116.68 0.1 123.87 0.1 115.19 11.21 124.49 22.72 116.62 22.72 110.05 13.98 105.88 13.98 105.88 22.67 99.61 22.72"></polygon><polygon class="cls-1" points="132.35 0.05 132.35 22.72 153.48 22.72 153.48 17.58 138.68 17.58 138.68 14.03 147.26 14.03 147.26 8.74 138.62 8.74 138.62 5.14 153.53 5.14 153.53 0.1 132.35 0.05"></polygon><path class="cls-1" d="M19.46,11.52H10.62V7.3l11.86-.07c0,1.65-3,4.28-3,4.28m3.19,4A21.37,21.37,0,0,0,29.33,2.26H4.45V25.09h6.06V16.86H17L22.34,25h7.09Z" transform="translate(-4.45 -2.26)"></path><polygon class="cls-1" points="20.32 33.79 20.32 37.42 19.45 37.42 19.45 33.79 17.5 33.79 17.5 33.1 22.27 33.1 22.27 33.79 20.32 33.79"></polygon><polygon class="cls-1" points="26.69 37.42 26.69 33.1 30.83 33.1 30.83 33.79 27.56 33.79 27.56 34.85 29.52 34.85 29.52 35.55 27.56 35.55 27.56 36.72 30.88 36.72 30.88 37.42 26.69 37.42"></polygon><polygon class="cls-1" points="50.06 37.42 50.06 35.52 47.05 35.52 47.05 37.42 46.18 37.42 46.18 33.1 47.05 33.1 47.05 34.83 50.06 34.83 50.06 33.1 50.92 33.1 50.92 37.42 50.06 37.42"></polygon><polygon class="cls-1" points="60.73 37.42 57.48 34.34 57.48 37.42 56.66 37.42 56.66 33.1 57.31 33.1 60.57 36.18 60.57 33.1 61.39 33.1 61.39 37.42 60.73 37.42"></polygon><rect class="cls-1" x="67.13" y="33.1" width="0.87" height="4.32"></rect><path class="cls-1" d="M89.59,36.27l-1,1.8h1.94Zm1.83,3.42-0.5-.94H88.25l-0.51.94h-0.9l2.43-4.32H90l2.36,4.32H91.41Z" transform="translate(-4.45 -2.26)"></path><polygon class="cls-1" points="92.28 37.42 92.28 33.1 93.15 33.1 93.15 36.72 96.22 36.72 96.22 37.42 92.28 37.42"></polygon><polygon class="cls-1" points="125.84 37.42 125.84 33.1 126.71 33.1 126.71 36.72 129.78 36.72 129.78 37.42 125.84 37.42"></polygon><polygon class="cls-1" points="134.79 37.42 134.79 33.1 135.66 33.1 135.66 36.72 138.73 36.72 138.73 37.42 134.79 37.42"></polygon><polygon class="cls-1" points="143.74 37.42 143.74 33.1 147.88 33.1 147.88 33.79 144.61 33.79 144.61 34.85 146.58 34.85 146.58 35.55 144.61 35.55 144.61 36.72 147.93 36.72 147.93 37.42 143.74 37.42"></polygon><polygon class="cls-1" points="163.37 37.42 163.37 33.1 167.52 33.1 167.52 33.79 164.24 33.79 164.24 34.85 166.21 34.85 166.21 35.55 164.24 35.55 164.24 36.72 167.57 36.72 167.57 37.42 163.37 37.42"></polygon><path class="cls-1" d="M44.18,39.68H41.35a0.88,0.88,0,0,1-.84-0.76V36.13a0.88,0.88,0,0,1,.84-0.76h2.83a0.88,0.88,0,0,1,.84.76v0.69L44.17,37V36.07H41.4V39h2.77V38L45,38.17v0.75a0.88,0.88,0,0,1-.84.76" transform="translate(-4.45 -2.26)"></path><path class="cls-1" d="M81.45,39.68H78.62a0.88,0.88,0,0,1-.84-0.76V36.13a0.88,0.88,0,0,1,.84-0.76h2.83a0.88,0.88,0,0,1,.84.76v0.69L81.44,37V36.07H78.67V39h2.77V38l0.85,0.15v0.75a0.88,0.88,0,0,1-.84.76" transform="translate(-4.45 -2.26)"></path><path class="cls-1" d="M113.52,39.68h-2.83a0.88,0.88,0,0,1-.84-0.76V36.13a0.88,0.88,0,0,1,.84-0.76h2.83a0.88,0.88,0,0,1,.84.76v0.69l-0.85.15V36.07h-2.77V39h2.77V38l0.85,0.15v0.75a0.88,0.88,0,0,1-.84.76" transform="translate(-4.45 -2.26)"></path><path class="cls-1" d="M161.52,39.68H158.4a0.83,0.83,0,0,1-.84-0.76V36.13a0.83,0.83,0,0,1,.84-0.76h3.12a0.83,0.83,0,0,1,.84.76v0.36l-0.85.15V36.07h-3.06V39h3.05V37.91H160V37.25h2.39v1.67a0.83,0.83,0,0,1-.84.76" transform="translate(-4.45 -2.26)"></path><path class="cls-1" d="M123.73,36.07h-3.11V39h3.11V36.07Zm0,3.61h-3.2a0.88,0.88,0,0,1-.84-0.77V36.13a0.88,0.88,0,0,1,.84-0.77h3.2a0.88,0.88,0,0,1,.84.77v2.79a0.88,0.88,0,0,1-.84.77" transform="translate(-4.45 -2.26)"></path></svg>