<svg id="Layer_1" data-name="Layer 1" xmlns="http://www.w3.org/2000/svg" viewBox="0 0 1297 528.28"><defs><style>.cls-1{fill:#0e1010;}.cls-2{fill:#070909;}.cls-3{fill:#060808;}.cls-4{fill:#090b0b;}.cls-5{fill:#1d1e1e;}.cls-6{fill:#111313;}.cls-7{fill:#0b0c0c;}.cls-8{fill:#e7edea;}.cls-9{fill:#6e6f6f;}.cls-10{fill:#07693a;}.cls-11{fill:#0b6b3e;}</style></defs><title>Belleville_Logo</title><path class="cls-1" d="M717.32,124.86c7.41,8.57,8.73,19.39,10.71,29.87,1.75,9.26,2.81,18.65,4.16,27.93,6.05-3,9.26-2.18,13.18,3.87,6.83,10.55,9.14,22.69,11.55,34.73,1.34,6.66,2.2,13.42,2.86,20.12-3.93-10.74-7.66-21.56-11.91-32.17A42.47,42.47,0,0,0,741.42,199c-2.53-3.2-6-3.2-8.44,0a57.11,57.11,0,0,0-7.44,12.16c-3,7-5.24,14.41-8.66,21.42,1.55-6.62,2.11-13.68,4.84-19.77,7.84-17.49,5-34.7.28-52.06-1.06-3.89-2.31-7.74-3.75-11.5-.59-1.54-1.92-2.79-3.62-5.15-1.75,2.73-3.56,4.49-4.09,6.57-3,11.74-5.71,23.54-8.32,35.37-.28,1.25.76,2.78,1.16,4.19Q709,210,714.51,229.88a14.14,14.14,0,0,1,.22,3.58c0,.37-.24.73-.17.52-3.39-8.94-6.65-18.31-10.54-27.42-1.83-4.28-4.05-9.59-9.65-9.51-5.38.08-7.45,5.4-9.14,9.5-4.1,9.93-7.48,20.15-11.14,30.26-.38,1.06-.68,2.15-1,3.23l-1.19-.23c1-6.48,1.52-13.11,3.22-19.41a298.65,298.65,0,0,1,10.12-32c2.72-6.88,6.88-8.37,12.12-7.19,2.73-13.77,5.08-27.63,8.37-41.28,1.28-5.3,4.67-10.09,7.11-15.11Z" transform="translate(-35.65 -124.86)"/><path class="cls-2" d="M1194.16,268.12c-31.13-5.26-55.4-20-69.22-50.58,2,.54,3.34.86,4.64,1.25s2.47.84,3.87,1.32l4.49-7.87c10.54,22.35,26.16,38.42,50.95,44.24l-5-19.94c13.1-6.9,25.08-15.88,40.82-16.41-4.3-6.82-4.86-14.05.44-20.71,3.3-4.15,13.1-4.67,19.08-1.55,7.07,3.69,1.67,10.28,3.19,15.34l1.64,2.55L1247,225l-10,7.91c.55,3.75.28,7.2,1.59,9.88,3.69,7.55.48,14.68-.27,22-.21,2,0,5.15,1.28,6a12.09,12.09,0,0,0,8,2.15c2.93-.44,5.61-2.61,7.62-4.67l5.38-10.37,1.64.72-.84,4.9,6-1.47,1.87,10.64-18.47,8.73c1.06,8.61-1.39,15.85-9.65,19.38,3.23,5,6.52,10.32,10,15.49,2.69,4,5.89,7.59,8.4,11.65,1.55,2.51,3.4,5.69,3.09,8.34-1.85,16,2.72,30.82,6.58,45.93a30.59,30.59,0,0,0,14.33,19.55c2.32,1.41,5.29,1.8,8,2.49,2.45.63,5.14.63,7.38,1.65,2,.91,4.73,2.66,5,4.34s-1.88,4.2-3.6,5.52a22.18,22.18,0,0,1-17.8,4.28c-4.3-.69-8.79-.08-13.18-.29-4.24-.2-8.47-.7-13.48-1.13.6-3.24.67-5.5,1.44-7.48,4.45-11.43,2.3-22.58-2.31-33.13a108.48,108.48,0,0,1-8.68-31,12.51,12.51,0,0,0-5.43-9.32c-3.78-2.7-7.39-5.64-11.17-8.55l-4.13.75-8.12-7.68-27.25,39.61c-9.78-.68-19.31-1.47-28.85-2-8.54-.44-17.1-.72-25.65-.67a25.87,25.87,0,0,0-9.14,1.92,173.37,173.37,0,0,0-18.4,8.26c-3.7,2-6.78,5.12-10.48,8-3.45-.91-5.24-4.08-3.14-8.28a107.8,107.8,0,0,1,8.8-14.06c4.76-6.68,9.84-13.14,15.58-20.74l12.67,13.9c8.64-1.56,18.44-3.74,28.37-5a56.31,56.31,0,0,1,15.9.85c4.06.68,6.22-.31,7.58-4.1,3.19-8.87,6.55-17.68,9-24.26V293.45c-15.42-8-31.95-12.92-50-5.14-14.37,6.19-25.55,16.21-34.67,28.56a231.26,231.26,0,0,0-15.3,23.76c-12.21,21.67-25.48,42.5-44.92,58.55-9.57,7.9-20.07,14.18-32.68,16.05-21.42,3.19-38.12-7.07-45-27.64-.45-1.37-.87-2.74-1.22-3.86-6.85,7-13.55,14.07-20.48,20.88a54.81,54.81,0,0,1-8.54,6.59c-16.42,10.7-34.53,2-36.61-17.47-.14-1.27-.17-2.55-.26-3.92-6.33,6-12,12.18-18.6,17.22-4.87,3.72-10.64,7.13-16.51,8.5-11.64,2.73-22.77-6.34-25-19-.36-2-.66-4-.89-5.49-7.15,6.35-14.15,13.08-21.71,19.11a25,25,0,0,1-20.7,5.47c-12.77-2.39-20.93-15.87-18.46-30.63.75-4.5,2-8.91,3-13.08H766.57L762.37,379c-6.12,10.4-13.08,20.12-22.56,27.8-20.67,16.74-47.94,8.28-55.9-17.37-.36-1.14-.67-2.3-1-3.39-5.77,5.12-11.28,10.56-17.36,15.28-8.95,7-18.77,12.25-30.25,14-20.57,3.11-37.47-7.07-44.22-26.84-.57-1.66-1.11-3.32-1.39-4.16-9,8.44-17.59,17.43-27.2,25.19a31.29,31.29,0,0,1-15.93,6.2c-10.73,1-19.75-7.22-22.07-18.5-.48-2.34-.71-4.74-1-6.56-3.31,3-6.8,6.38-10.49,9.49-4.93,4.14-9.65,8.69-15.11,12-15.45,9.37-32.69.45-34.8-17.64-.22-1.91-.39-3.82-.66-6.47-3.52,3.29-6.43,6.2-9.55,8.87-9.9,8.49-20.66,15.49-33.7,18.1-28.51,5.71-43.91-13.63-47.94-32.28-4.08-18.89,1.65-35.68,12.58-50.82,14-19.43,32.26-32.89,56.36-37.07a55.08,55.08,0,0,1,13.45-.42c8.28.63,13.46,5.78,13.3,14.08a38.55,38.55,0,0,1-3.31,15.18,113.67,113.67,0,0,1-44.44,50.06,49.38,49.38,0,0,1-6.4,3.25c-2.19.93-4.5,1.59-6.65,2.33a3.48,3.48,0,0,0-.49.92c-2.15,16.33,2.84,20.55,18.32,14.83,14.67-5.42,25.52-16.05,35.43-27.67a186.19,186.19,0,0,0,30.08-49.27c10.13-24.13,21.11-47.9,31.52-71.92,1.69-3.9,2.31-8.26,3.56-12.93a28.07,28.07,0,0,1,5.11.35,31.86,31.86,0,0,1,18.65,12.53c1.92,2.71,3.26,7.41,2.29,10.35a417.6,417.6,0,0,1-15.23,40.21c-11.36,25.09-23.67,49.74-35.27,74.72-2.88,6.2-4.6,12.95-6.68,19.5-.57,1.79-.49,3.78.37,6.65,3.3-2.41,7-4.39,9.82-7.3,16.39-17.12,30.14-36.21,40.06-57.76C556.67,304.42,569,276,581.47,247.66c1.84-4.2,2.58-8.88,4.1-14.26,1.16,0,3-.38,4.5.08a39.17,39.17,0,0,1,8.29,3.34c14.06,8,17,14.28,10.78,29.19-9.47,22.62-20.24,44.7-30.3,67.08q-11.77,26.2-23.07,52.6c-1.4,3.29-1.61,7.08-2.36,10.65L555,397.5c3.61-2.71,7.87-4.86,10.69-8.22,8.08-9.64,15.6-19.76,23.27-29.74a11.69,11.69,0,0,0,1.26-3.33c11.38-33,33.78-53.78,68-61.29a47.19,47.19,0,0,1,13.44-.49c8.69.65,13.93,6.12,13.48,14.82a41.32,41.32,0,0,1-3.62,15.1c-10,21.16-24.93,38-45.14,50-3.81,2.25-8.14,3.64-12.29,5.44-3,16.09,2.45,20.94,17.88,15.39,14.59-5.24,25.31-15.78,35.2-27.21,14.05-16.23,24.84-34.52,33.35-54.15,1.88-4.33,2.75-9.09,4.53-15.15,1.71-2,5.54-1.45,8.47-.18a62.09,62.09,0,0,1,14.58,8.45c5,4,6.18,10.14,3.69,16-5.08,12-11,23.58-16,35.58-4.54,10.88-8.8,21.93-12.26,33.18-2.22,7.24,1.27,10,8.82,8.25,7.77-1.81,13.35-7,17.9-12.95,6.17-8,11.44-16.74,17.12-25.19-8.21-10.81-6.46-21.12-1.23-31.57a155.75,155.75,0,0,0,7.18-15.95c1.68-4.58,2.5-9.47,4.09-15.76,2.1-.08,5.46-1.05,8.17-.12a51.13,51.13,0,0,1,13,6.73c6.47,4.64,8.42,11.47,5.56,18.77-3.43,8.75-7.76,17.15-11.74,25.69-1.45,3.11-3,6.17-3.76,10.26,2.48-2,5.36-3.73,7.39-6.14,13.57-16.16,22.45-34.87,29.57-55.32a11.56,11.56,0,0,1,3.72-.38c8.86,1.69,16,6.28,20.19,14.26,1.28,2.44.86,6.64-.32,9.36-6.61,15.23-13.87,30.18-20.54,45.38-3.59,8.2-6.53,16.69-9.56,25.12-.73,2-.65,4.33-.94,6.51l1.35,1.23c3.94-2.72,8.31-5,11.74-8.23,13.76-13.06,24.46-28.7,32.74-45.46,16.1-32.58,30.84-65.84,45.94-98.9,1.83-4,2.46-8.59,4-14.08,2.17.3,5.28-.1,7.37,1.18A120.71,120.71,0,0,1,927.48,246c3.93,3.42,3.75,8.67,2,13-6.34,16.13-12.72,32.28-19.84,48.07-10.81,24-22.41,47.65-33.31,71.62-2.47,5.43-3.44,11.55-5.11,17.35l1.5,1c2.15-1.17,4.67-2,6.37-3.59a191.86,191.86,0,0,0,14-14.59c18.44-21.9,31-47.22,42.26-73.3,8.47-19.65,17.19-39.19,25.56-58.87,1.72-4.05,2.39-8.55,3.73-13.5a31,31,0,0,1,5.47.49,31.62,31.62,0,0,1,18.49,12.75c1.87,2.75,3.07,7.46,2,10.4-5,14.37-10.24,28.72-16.49,42.58-11.51,25.5-24,50.56-35.64,76-3,6.53-4.44,13.77-6.6,20.68l1.57,1c2.39-1.33,5.41-2.13,7.07-4.09,9.48-11.18,19.07-22.33,27.69-34.16,3.48-4.78,4-11.61,6.92-16.93,13.68-25,33.85-41.65,62.33-47.13a48.21,48.21,0,0,1,9.41-.67c13.89.1,20.33,8.41,16.77,21.84-3.79,14.31-12.35,25.89-22,36.69-10.6,11.87-22.61,21.89-38.75,26.8,0,3.69-.28,7.55.07,11.36.43,4.7,3.35,6.59,8.08,6.32,11.22-.65,20.28-6.14,28.6-12.93,17.47-14.28,30.13-32.48,41.18-51.88,13-22.88,29.86-42.13,53.33-54.61,16.67-8.86,34.16-9.25,51.77-2.4,4.73,1.84,9.42,3.76,14.41,5.76l4-4.32-6.88-3.1-2.45-5.65-.49-1.57Zm-184.61,92.24c14.81-5.11,43.51-41,40.06-51.3C1037.26,309.1,1012.91,340.27,1009.55,360.36ZM671.78,308.84c-14.26.95-38.66,32.62-41.65,52.86C649.23,348,664.84,332.5,671.78,308.84Zm-218.21.25c-15.19-1.56-37.31,34.82-41.74,52.63C431.15,348.07,446.58,332.43,453.57,309.09Zm750.77-67.94-4.5,1.45c.42,5.76.18,11.37,6,15.34Zm15.57,60.41-.06,1,15.31,1,0-.88Zm-1.27-.32a7,7,0,0,0-1.58-.61,16.29,16.29,0,0,0-2.21.26,6.81,6.81,0,0,0,1.61.65A15.09,15.09,0,0,0,1218.64,301.23Z" transform="translate(-35.65 -124.86)"/><path class="cls-3" d="M226.9,263.6c-6.14,5.24-12.33,10.41-18.4,15.72-25.07,21.91-49.78,44.24-75.3,65.63-12.83,10.76-27.15,19.72-43.19,25.37-10.14,3.57-20.4,3.29-30.54.33C46,366.72,37.09,354.59,35.85,339.77c-1.12-13.38,2.57-25.5,9-37,13.26-23.87,32.6-42.12,54.17-58.22,44.63-33.31,95.15-52.61,149.7-62A305,305,0,0,1,328.05,179c15,1.36,29.59,4.79,42.86,12.41,24.92,14.32,32.13,41.81,17.27,66.4-11.4,18.86-27.54,33.22-45.26,45.78-11.58,8.21-23.83,15.48-35.63,23.08a68.43,68.43,0,0,1,24.92,16.17c15.19,15.55,18.22,36.44,7.49,55.32-10,17.56-24.36,31.16-40.32,43.1C264.84,467.13,226.77,485.51,184,493c-19.5,3.43-39.15,4-58.16-3.15-15-5.63-25.94-15.31-28.17-32-.75-5.61.15-11.64,1.37-17.24a10.07,10.07,0,0,1,9.67-8.16c4.83-.17,8.19,3.08,10,7.23a35.78,35.78,0,0,1,2.52,10.39c.67,6.3,3.32,10.5,9.72,10.9,9.83.61,19.85.9,29.58-.32,45.14-5.66,85.28-23.15,120.08-52.58,10.84-9.17,20.42-19.5,27.26-32.06,3.46-6.34,6.25-13,5-20.55-.82-5.13-3.5-9-8.18-11.1-11-4.93-22.17-6.45-34-3.12-12.95,3.63-26.08,6.59-41.14,10.35-8,17.65-17,37-25.69,56.55a22.9,22.9,0,0,0-.89,17c2.94,9.05-.78,12.68-10.27,10.94-18.61-3.42-30.38-21.16-24.48-39.83,5.34-16.89,13.05-33,19.74-49.5.79-1.94,1.74-3.81,2.4-5.23-3-4.41-6.24-8.36-8.63-12.75-3-5.58-2.16-11.14,1.4-14,3.36-2.75,8.69-2.35,13.72.92,1.49,1,3.11,1.74,5.52,3.07l25.15-54.7.35-1.7Zm25.17,46.77a4.1,4.1,0,0,0,1.12,0c32.82-11,63.38-26.33,90.43-48,8-6.38,14.79-14.41,21.22-22.42s4.56-24.59-7-30.46c-6.6-3.36-13.65-6.55-20.85-7.86-24.32-4.43-48.8-3.25-73,1.21C209.28,213,161.62,237.5,120.94,275.48c-17,15.84-32.5,32.94-42.62,54.15a64.14,64.14,0,0,0-4.89,16.2c-.95,5.29,2.82,8.64,8.11,7.41,11.16-2.6,20.73-8.35,29.17-15.41,21.62-18.09,42.53-37,63.89-55.42,17.14-14.77,34.05-29.88,52-43.68,12.13-9.34,18.63-10,34.49,2.7a40.46,40.46,0,0,1,5,5.2c3.63,4.18,5.54,9,4.3,14.53-1.2,5.39-2.3,10.89-4.29,16C261.7,288.28,256.81,299.2,252.07,310.37Z" transform="translate(-35.65 -124.86)"/><path class="cls-3" d="M298.7,556.45h-8.41V535.39h62.23l16.41,60.53,15.59-60.52H447v20.85l-8.41.41v71.89h8.48v21H395.65V628.82h8.54V566.51l-22,83.24H347.46c-3.81-13.6-7.7-27.22-11.44-40.88s-7.25-27.07-10.57-39.51v59h8.93v21.19h-44.1v-21h8.42Z" transform="translate(-35.65 -124.86)"/><path class="cls-3" d="M1217.53,628.72V556.4h-9.19V535.5h47.37l39.63,59V556.58h-10.71V535.32h48v20.86h-9.48v93.55h-35.73l-41.19-61.47v40.33h12.09v21h-50V628.72Z" transform="translate(-35.65 -124.86)"/><path class="cls-4" d="M1034.54,581.5V557.13h-8.92V535.38h52.9V556.9h-8.87v71h8.88V649.6h-52.9V628.19h8.81V603.7h-30.23v24.08h9.48v21.91H961V628.21h8.47V557.26l-8.47-.37v-21.5h52.8v21.53h-9.64V581.5Z" transform="translate(-35.65 -124.86)"/><path class="cls-3" d="M1202.21,595.52c-1.05,5.81-1.8,13.94-4.07,21.63-5,16.91-16.4,28-33.32,32.92a72.14,72.14,0,0,1-47.23-1.92c-11.95-4.64-21-12.91-26.14-24.69-8.36-19.12-9-38.7-1.14-58.13,7.07-17.37,20.35-27.93,38.53-31.87a70.46,70.46,0,0,1,37.35,1.9c20.12,6.63,30.76,21.41,34.19,41.79C1201.29,582.46,1201.48,587.88,1202.21,595.52Zm-41.24.8c-1-13.27-1.12-23-6.5-31.43-6.53-10.26-17.87-10.24-23,.66-8.06,17.11-7.91,34.77-.27,52.11,2.4,5.45,6.63,9.48,13.16,9.21s10.19-4.74,11.87-10.16C1158.64,608.93,1160,600.81,1161,596.32Z" transform="translate(-35.65 -124.86)"/><path class="cls-2" d="M668,593.06c12,4.45,19.07,12.38,18.86,25.84,0,2.67,1,5.36,1.62,8.23,8-.6,4.68-6.53,6.28-10.24h11c-.5,6.25-.43,12.43-1.58,18.36-1.84,9.46-8.47,14.93-18.46,16.39-16.73,2.45-30.3-4.56-34.52-18.2-1.13-3.66-1.28-7.64-1.7-11.5-.29-2.68-.11-5.41-.42-8.08-.86-7.53-3.23-9.8-10.8-10.66-1.49-.17-3-.26-4.76-.41v25h9.48v21.9H590.39V628.11H599V557h-8.45V535.14c19.14,0,38.18-.22,57.21.12a76.23,76.23,0,0,1,19.08,2.64c16.63,4.67,23.43,14.71,21.88,34.13-.77,9.67-7.27,15.4-15.89,18.91-1.51.62-3,1.18-4.56,1.78C668.18,592.78,668.12,593,668,593.06Zm-34.62-8.61c7.93-.21,15.91,1.18,21-6.46,2.81-4.18,2.34-12.25-.84-16.19-5.48-6.79-13-5-20.2-5.08Z" transform="translate(-35.65 -124.86)"/><path class="cls-2" d="M709.52,628.32h10.94l22-71.61-6.46-.43v-20.9h63.11l29,92.88h11.32v21.41H774V628.32h15.13l-3.4-11.05H752.45L749,628.18h12.32v21.47H709.52Zm49.05-31.21h20.93L769,562.64Z" transform="translate(-35.65 -124.86)"/><path class="cls-3" d="M572.37,628.28h11.21v21.45H518.19V628.28H533.3l-3.36-11H496.73l-3.5,10.88h12.49V649.6H453.91V628.55h10.72l22.13-71.88-6.24-.34V535.42h62.88Zm-48.57-31.1-10.6-34.52-10.38,34.52Z" transform="translate(-35.65 -124.86)"/><path class="cls-4" d="M844.47,535.35H954.15v42.5h-23.8V557.31h-13.6v70.42h13.18v22H869.12V628.06h13V557.37H868.78v20.47H844.47Z" transform="translate(-35.65 -124.86)"/><path class="cls-5" d="M1311.53,430.94l18.23,18.28v52.39l-18.85,18.74H587.37l-18-18.07V449l18.33-18.09ZM588.8,516.84H1309.6l16.77-16.66V450.72l-16.28-16.47H589.27l-16.43,16.54v50Z" transform="translate(-35.65 -124.86)"/><path class="cls-6" d="M802.05,286.53H627.49c2.29-7,13.91-15.57,22.38-16.56a62.08,62.08,0,0,1,7.17-.46c38.12,0,76.24.11,114.35-.09C784.67,269.35,794.06,275.55,802.05,286.53Z" transform="translate(-35.65 -124.86)"/><path class="cls-3" d="M656.24,261.69c5.48-6.76,11.38-10.76,19.86-10.7,25.82.18,51.64.22,77.46,0,8.8-.08,15.12,3.67,20.6,10.72Z" transform="translate(-35.65 -124.86)"/><path class="cls-4" d="M836.4,284.5c-7.45.26-10.17-1.91-10.37-7.95a37.64,37.64,0,0,1,10.53-27.79c6.5-6.91,21.88-1.12,25,9.08,2,6.62-.21,12.12-4.63,16.87A30.56,30.56,0,0,1,836.4,284.5Z" transform="translate(-35.65 -124.86)"/><path class="cls-6" d="M722.1,234.94c.19-6.31,3.57-10.91,9-12.21,4.67-1.12,8.46,1.11,11.45,7.12a40.69,40.69,0,0,1,3,9C737.91,230,735.22,229.51,722.1,234.94Z" transform="translate(-35.65 -124.86)"/><path class="cls-1" d="M709,235.35c-8.85-5.76-16.89-5.78-23.48,3.7,2.6-11.27,7.41-17.1,13.09-16.61C704.5,222.94,708.76,228,709,235.35Z" transform="translate(-35.65 -124.86)"/><path class="cls-7" d="M1194.16,268.12l.41-1.64.49,1.57Z" transform="translate(-35.65 -124.86)"/><path class="cls-8" d="M1204.34,241.15l1.47,16.79c-5.79-4-5.55-9.59-6-15.34Z" transform="translate(-35.65 -124.86)"/><path class="cls-9" d="M1219.91,301.55l15.3,1.08,0,.88-15.31-1Z" transform="translate(-35.65 -124.86)"/><path class="cls-9" d="M1218.64,301.23a15.09,15.09,0,0,1-2.18.3,6.81,6.81,0,0,1-1.61-.65,16.29,16.29,0,0,1,2.21-.26A7,7,0,0,1,1218.64,301.23Z" transform="translate(-35.65 -124.86)"/><path class="cls-8" d="M588.8,516.84l-16-16v-50l16.43-16.54h720.82l16.28,16.47v49.46l-16.77,16.66Zm1.12-3.28h718.92l14.22-14.12V452.22l-14-14.48H590.65L576,452.21v47.28Z" transform="translate(-35.65 -124.86)"/><path class="cls-10" d="M589.91,513.56,576,499.49V452.21l14.65-14.46H1309l14,14.48v47.22l-14.22,14.12Zm96.56-12,11.93-42.05v35l-5.6.7v6.21h28v-6.16l-6.69-.86V456.76l6.59-.57v-6.51H693.24l-9.44,32.56-9-32.43H646.58v6.43l7.05.45v37.73l-7.09.75v6.26h22.28v-6.27l-5.69-.78V458.5l12,43Zm357-7V478.6h12.17c.58,1.15,1.16,1.8,1.2,2.48.19,3.29.22,6.59.33,9.89.21,6.32,3.28,10.33,8.78,11.46,10.88,2.25,17.52-4,16.05-15h-4.6l-.7,6.93-5.15.31c0-4.59.95-8.91-.28-12.5-1.14-3.34-4.58-5.89-6.71-8.43,4-.93,8.7-3.07,9.7-9.22,1.21-7.4-2.83-13.63-10.95-14.07-14-.77-28.1-.21-42.42-.21v6l7.08.54v37.67l-7,.72v6.22h29.76v-6.24ZM822,501.4h23.72v-6.22l-7.21-.81V463.08l21.83,38.29H876c.48-15.07-.44-29.94.5-44.65l7.26-.53v-6.41H860.17v6.42l7.21.59v28.56l-20.45-35.57h-24.8v6.49l7,.44v37.73l-7.15.78Zm315.9.11V480.7h-6.6c-1.54,13.61-6.2,16.43-22.4,13.64V478.85c6.7-1.09,6.85-1,9.4,8.16h5.22V463.3h-5.48c-1.39,8.23-2.41,9.12-9.12,8.1V456.8c16.62-2,19.85-.17,22.61,12.56H1138V449.73h-51.64v6.5l7.23.43v37.69l-7.19.85v6.3Zm12.63-44.76v37.55l-7.13,1v6.16h51.4V480.7h-6.73c-1.17,13.5-7.65,17.33-22.34,13.43V478.64c7.3-.63,7.93,0,9.15,8.36h5.55V463.27h-5.53c-1.25,8.21-2.09,9-9.1,8.31V456.66c17.86-1.28,19.71-.21,22.6,12.66h6.35V449.85h-51.22v6.38ZM913,501.8h6l2.34-3.82c7.91,5.16,16.41,5.77,25.16,3.8,8.52-1.92,13.09-7.16,13.31-14.71.23-8-4-13.4-12.54-15.81-5-1.42-10.2-2.39-15.26-3.75-3.28-.88-6.54-2.12-5.88-6.54s4.16-5.18,7.73-5.24c8.78-.14,14.16,4.52,16.57,12.49H957V449.54h-5.73l-1.87,3.39c-7.63-4.76-15.81-5.44-24.31-3.44-8.16,1.91-12.89,7.16-13.11,14.43-.23,7.71,3.57,12.79,11.88,15.28,5.3,1.59,10.75,2.66,16.08,4.17,3.1.88,6.26,2.18,5.7,6.29s-3.83,5.47-7.48,5.78c-9.37.8-15-3.43-18.73-13.78H913ZM747.3,495.1l-7.32-.73,2.63-9.12h16.92l2.34,9-6.93,1v6H783v-6.14l-6.05-.87-15.35-44.63H746.23l-15.35,44.65-6.08.85v6.17h22.5Zm498.64-25.67h6.47V449.81h-51v19.58h6.7c1.63-10.85,3.73-13.2,11.06-12.56V494.4l-7.25.74v6.29h29.84v-6.32l-7.12-.71V456.62C1242.39,456.61,1244.15,458.67,1245.94,469.43Zm-274.47.12c3.33-12.27,4.48-13.5,11.38-12.67V494.4l-7.31.78v6.14h30v-6.24l-7.24-.58V456.73c7.36-.47,8.83,1.16,11.36,12.61h6.47V449.73H965.08v19.82ZM817.31,449.82H787.79v6.39l6.92.63v37.58l-6.94.74v6.31H817.3v-6.34l-6.9-.69V456.68l6.9-.47ZM609.12,465.43a10.24,10.24,0,0,0-10.23,10.22,10.72,10.72,0,0,0,10.26,10.41,10.51,10.51,0,0,0,10.39-10.67A10.08,10.08,0,0,0,609.12,465.43Zm680.71,0a10.07,10.07,0,0,0-10.3,10.09,10.31,10.31,0,1,0,20.61,0A10.14,10.14,0,0,0,1289.82,465.43Z" transform="translate(-35.65 -124.86)"/><path class="cls-11" d="M1043.18,456.35c5.43.81,11.61-2.21,15.48,3.25,1.38,1.94,1.4,6.34.11,8.39-3.74,5.89-10.11,2-15.58,3.38Z" transform="translate(-35.65 -124.86)"/><path class="cls-11" d="M751,460.49l6,17.7H745Z" transform="translate(-35.65 -124.86)"/></svg>